<!-- icon666.com - MILLIONS vector ICONS FREE --><svg version="1.1" id="Layer_1" xmlns="http://www.w3.org/2000/svg" xmlns:xlink="http://www.w3.org/1999/xlink" x="0px" y="0px" viewBox="0 0 512 512" style="enable-background:new 0 0 512 512;" xml:space="preserve"><g><g><path d="M501.88,240.652l-105.456-42.815l40.365-100.924c2.483-6.195,1.027-13.283-3.695-18 c-4.712-4.728-11.794-6.185-18.006-3.695l-100.913,40.359L271.342,10.12C268.712,3.978,262.679,0,256,0 c-6.679,0-12.712,3.978-15.342,10.12l-42.827,105.456L96.913,75.217c-6.212-2.489-13.293-1.033-18.006,3.695 c-4.723,4.717-6.18,11.804-3.695,18.011l40.37,100.902L10.12,240.652C3.978,243.282,0,249.326,0,256 c0,6.674,3.978,12.718,10.12,15.348l105.462,42.827l-40.37,100.902c-2.483,6.206-1.027,13.293,3.695,18.011 c4.712,4.717,11.794,6.185,18.006,3.695l100.919-40.359l42.827,105.456c2.63,6.142,8.663,10.12,15.342,10.12 c6.679,0,12.712-3.978,15.342-10.12l42.831-105.456l100.913,40.359c6.212,2.489,13.293,1.022,18.006-3.695 c4.723-4.717,6.18-11.804,3.695-18l-40.365-100.924l105.456-42.815C508.022,268.718,512,262.674,512,256 C512,249.326,508.022,243.282,501.88,240.652z M256,406.261c-82.853,0-150.261-67.403-150.261-150.261 S173.147,105.739,256,105.739S406.261,173.142,406.261,256S338.853,406.261,256,406.261z"></path></g></g><g><g><path d="M256,139.13c-64.442,0-116.87,52.428-116.87,116.87S191.558,372.87,256,372.87S372.87,320.442,372.87,256 S320.442,139.13,256,139.13z"></path></g></g></svg>